<svg width="1023" height="1280" viewBox="0 0 1023 1280" fill="none" xmlns="http://www.w3.org/2000/svg">
<path d="M938.31 471.087C941.082 471.095 943.854 471.104 947.46 471.163C947.025 472.107 945.838 473.581 944.47 473.776C941.535 474.196 938.506 473.982 935.516 473.982C851.427 473.987 767.338 474.002 683.249 473.933C679.356 473.93 675.464 473.165 672 472.053C675.771 471.292 679.113 471.234 682.965 471.362C683.823 471.442 684.171 471.337 685.431 471.364C693.169 471.324 699.995 471.151 707.565 471.216C710.87 471.237 713.431 471.022 716.717 471C718.439 471.181 719.435 471.169 721.346 471.39C739.527 471.423 756.793 471.223 774.887 471.212C777.398 471.286 779.081 471.17 781.419 471.279C783.431 471.348 784.788 471.193 786.841 471.225C788.494 471.401 789.45 471.392 790.926 471.494C791.776 471.478 792.107 471.349 793.246 471.32C796.226 471.355 798.396 471.29 801.269 471.478C803.434 471.568 804.897 471.405 807.205 471.346C810.883 471.425 813.717 471.402 817.424 471.621C824.912 471.622 831.527 471.381 839.056 471.316C846.125 471.377 852.28 471.263 859.345 471.412C876.215 471.484 892.177 471.292 909.049 471.29C916.109 471.377 922.258 471.276 929.218 471.421C932.789 471.474 935.55 471.281 938.31 471.087Z" fill="#23A9A7"/>
<path d="M234.352 57.9917C244.96 53.5993 255.094 49.7353 265.828 45.4504C280.792 40.3924 295.132 35.6817 309.527 31.1459C317.987 28.4803 326.534 26.093 336.418 23.3346C338.987 22.5906 340.18 22.0924 342.145 21.582C352.078 19.3639 361.24 17.158 371.21 15.0199C382.89 12.8429 393.761 10.5982 405.419 8.42325C417.682 6.81322 429.157 5.13343 441.543 3.57607C453.152 2.71548 463.852 1.73246 475.473 0.881577C487.685 0.581841 498.976 0.149971 511.178 0C523.553 0.456108 535.017 0.630325 547.336 1.0303C558.94 1.90054 569.69 2.54501 581.122 3.58555C592.585 5.19311 603.368 6.40459 614.851 7.99608C627.205 10.3354 638.858 12.2947 651.125 14.5826C662.323 17.3799 672.907 19.8484 684.173 22.6304C694.731 25.6261 704.606 28.3085 715.071 31.4227C728.547 36.0184 741.434 40.1823 754.84 44.7464C766.11 49.2363 776.859 53.3259 788.104 57.9485C794.484 60.9107 800.368 63.34 806.685 66.2872C812.662 69.1509 818.205 71.4968 823.735 73.7936C823.723 73.7444 823.802 73.8007 824.082 74.269C825.056 74.8942 825.748 75.0511 826.952 75.6877C837.124 81.0461 846.784 85.9247 856.905 91.0347C857.708 91.2929 858.051 91.3197 858.814 91.8676C863.674 94.6256 868.113 96.8625 872.989 99.6096C880.385 104.088 887.345 108.057 894.704 112.533C906.232 119.685 917.361 126.329 928.854 133.432C930.281 134.358 931.344 134.825 932.656 135.904C937.357 139.476 941.807 142.436 946.578 145.991C958.081 154.1 969.264 161.613 980.738 169.728C992.806 179.398 1004.58 188.466 1016.62 198.11C1018.35 200.226 1019.81 201.767 1021.18 204.222C1021.44 216.499 1021.77 227.861 1021.84 239.996C1021.7 242.941 1021.84 245.113 1021.75 248.175C1021.58 256.925 1021.63 264.784 1021.44 273.45C1021.29 285.414 1021.38 296.572 1021.29 308.226C1021.31 309.38 1021.52 310.037 1021.52 311.4C1021.42 313.071 1021.53 314.035 1021.35 315.673C1021.23 319.263 1021.39 322.18 1021.27 325.693C1020.75 327.132 1020.51 327.976 1019.69 329.161C1017.6 331.241 1016.03 332.925 1014.61 334.727C1003.25 349.157 991.359 363.102 977.25 374.227C976.867 363.238 976.648 353.179 976.655 342.207C976.727 329.904 976.575 318.515 976.595 306.203C976.649 294.562 976.533 283.844 976.625 272.21C976.723 259.911 976.611 248.528 976.662 236.301C978.511 226.546 975.151 220.342 966.479 216.222C960.158 211.485 954.176 207.331 947.907 202.585C941.257 197.574 934.896 193.156 928.233 188.146C923.298 184.309 918.808 180.832 914.005 177.862C896.211 166.86 878.314 156.025 860.056 144.568C852.59 140.372 845.523 136.735 838.011 132.579C821.238 124.123 804.91 116.185 788.085 107.789C768.783 99.7307 750.009 92.0543 731.141 84.6124C728.209 83.4557 724.854 83.3699 721.301 82.1351C708.794 77.7442 696.682 74.007 683.965 69.8844C675.027 67.4578 666.693 65.4168 657.602 63.0832C652.113 61.8169 647.381 60.8432 641.983 59.5452C632.42 57.7467 623.523 56.2727 613.944 54.394C602.379 52.6877 591.496 51.3861 579.762 49.7641C567.449 48.6068 555.989 47.7698 543.745 46.6663C532.168 46.1632 521.374 45.9265 509.653 45.5217C493.965 46.1054 479.204 46.8572 463.605 47.5788C455.384 48.3386 448 49.1287 439.802 49.7805C428.803 51.4326 418.618 53.2229 407.58 54.9642C388.827 58.7219 370.927 62.5287 352.301 66.2616C346.49 67.749 341.406 69.3104 335.574 70.7603C331.977 71.6158 329.127 72.5827 325.666 73.563C324.458 74.075 323.862 74.5735 322.78 74.8083C321.636 74.8353 320.977 75.126 319.691 75.4069C317.955 75.9331 316.846 76.4692 315.359 76.8936C314.981 76.7819 314.382 77.2946 313.92 77.2705C313.458 77.2464 312.621 77.6384 312.029 77.5492C310.443 78.0399 309.45 78.6197 307.831 79.1995C306.196 79.8021 305.185 80.4047 304.3 81.0322C304.425 81.0572 304.455 80.8041 303.658 80.7984C288.736 86.2776 274.61 91.7624 259.745 97.2392C249.078 101.775 239.149 106.319 228.541 110.683C213.37 117.595 198.783 124.5 184.427 131.857C176.867 135.732 169.711 140.396 161.684 144.894C149.474 152.411 137.953 159.737 125.75 167.185C114.202 174.626 103.337 181.946 91.8201 189.432C84.6144 194.611 78.0607 199.622 70.89 204.841C65.4664 208.786 60.6595 212.525 55.1818 216.506C46.2438 220.754 42.8382 227.236 44.4412 236.336C44.7184 237.91 44.696 239.536 44.7095 242.063C44.6454 252.362 44.6838 261.734 44.5524 272.03C44.5502 284.379 44.7178 295.805 44.7269 308.147C44.6658 320.382 44.7631 331.701 44.6685 343.944C44.6705 355.671 44.8645 366.473 44.8759 378.184C44.7532 389.77 44.813 400.447 44.7181 411.612C44.659 412.428 44.7548 412.756 44.7013 414.01C44.3791 425.588 44.2062 436.239 43.3239 446.971C35.8989 450.446 29.1835 453.838 21.8033 457.372C14.9899 462.162 8.84125 466.811 1.54181 472.329C1.07568 462.85 0.688415 454.975 0.448608 446.176C0.400268 435.209 0.204406 425.165 0.177246 414.199C0.181823 401.184 0.017639 389.092 0 376.084C0.056152 365.154 -0.0341793 355.141 0.0584717 344.207C0.151001 330.555 0.0605469 317.824 0.0744019 304.165C0.104371 293.237 0.0300294 283.236 0.120422 272.305C0.158813 260.586 0.0324091 249.797 0.0643311 238.093C0.138061 227.163 0.0535275 217.148 0.16571 206.481C0.295959 204.93 0.229614 204.029 0.569763 202.585C8.33929 195.934 15.7024 189.825 23.6918 183.461C31.1104 177.862 37.9025 172.517 45.3583 167.079C49.5419 164.185 53.0618 161.384 57.2032 158.396C68.6985 150.512 79.5723 142.816 91.1193 134.958C103.344 127.56 114.896 120.325 127.135 112.968C136.23 107.78 144.637 102.714 153.651 97.4421C157.128 95.4297 159.999 93.6232 163.577 91.6912C176.006 85.6499 187.729 79.7339 200.122 73.6499C206.085 70.8031 211.377 68.1242 216.67 65.4454C222.406 63.137 228.142 60.8286 234.352 57.9917Z" fill="#20436D"/>
<path d="M977.415 375.156C991.36 363.101 1003.25 349.156 1014.61 334.726C1016.03 332.923 1017.6 331.24 1020.19 329.779C1021.75 333.79 1022.22 337.522 1022.39 342.141C1022.19 354.457 1022.28 365.884 1022.2 378.222C1021.99 390.248 1021.95 401.362 1021.86 412.562C1021.81 412.646 1021.78 412.841 1021.31 413.414C1020.81 416.969 1020.8 419.951 1020.66 423.858C1020.3 432.218 1020.07 439.652 1019.43 447.647C1018.8 450.969 1018.57 453.731 1017.91 456.946C1017.25 458.58 1017.01 459.762 1016.53 461.34C1016.29 461.737 1016.37 462.658 1015.84 463.126C1011.72 470.115 1008.13 476.637 1004.03 483.391C1003.19 484.283 1002.86 484.942 1002.03 485.848C1001.09 487.099 1000.66 488.104 1000.32 489.115C1000.42 489.12 1000.43 488.923 999.868 489.051C998.957 489.82 998.604 490.461 998.341 491.104C998.432 491.105 998.426 490.923 997.868 491.05C996.956 491.819 996.602 492.461 996.348 493.099C996.448 493.094 996.433 492.895 995.871 492.933C994.536 493.716 993.763 494.462 992.319 495.377C987.884 498.251 984.119 500.956 979.681 503.786C974.185 505.795 969.362 507.677 963.704 509.527C951.641 510.079 940.418 511.018 929.185 511.172C904.969 511.503 880.747 511.431 855.752 511.431C853.421 511.404 851.866 511.469 849.402 511.331C827.177 511.249 805.86 511.372 783.653 511.403C778.634 511.345 774.505 511.379 769.744 511.219C768.251 511.152 767.389 511.279 765.687 511.321C762.025 511.289 759.202 511.344 755.461 511.229C742.492 511.227 730.441 511.394 717.463 511.432C705.875 511.472 695.213 511.641 683.624 511.631C671.249 511.425 659.802 511.399 647.784 511.003C638.892 504.044 635.394 494.657 632.382 484.529C632.296 483.344 631.897 482.871 631.184 482.558C631.141 482.488 631.108 482.33 631.055 481.582C627.495 469.619 623.989 458.404 620.511 446.425C619.283 441.423 618.029 437.185 616.774 432.947C613.018 442.216 610.678 451.078 608.755 460.029C607.113 467.673 605.95 475.419 604.17 483.784C601.37 495.331 598.976 506.215 596.203 517.766C593.357 530.005 590.889 541.575 587.995 553.81C585.5 565.071 583.431 575.665 581.006 586.901C579.994 591.416 579.337 595.291 578.127 599.661C575.86 607.805 574.148 615.453 572.02 623.726C569.343 635.254 567.083 646.156 564.579 657.787C562.444 667.817 559.234 676.309 549.906 681.314C549.461 681.304 548.656 681.687 547.882 681.612C546.128 681.837 545.148 682.138 543.413 682.244C540.587 681.87 538.516 681.689 535.992 681.24C535.186 680.96 534.835 680.949 533.966 680.507C525.633 676.127 523.675 668.709 522.301 660.448C521.957 658.849 521.477 657.828 520.973 656.758C520.95 656.708 520.94 656.6 520.972 655.738C519.492 644.288 517.98 633.7 516.572 622.235C515.022 609.95 513.366 598.542 511.623 586.221C510.435 575.9 509.337 566.492 508.375 556.496C508.096 554.838 507.681 553.768 507.251 552.593C507.236 552.488 507.131 552.303 507.233 551.459C505.749 539.486 504.163 528.356 502.665 516.36C502.013 510.778 501.175 506.075 500.555 501.344C499.76 495.268 499.14 489.17 498.499 482.351C498.314 480.678 498.074 479.735 497.975 478.129C497.614 475.754 497.111 474.043 496.764 471.539C496.199 465.613 495.479 460.478 494.815 454.528C494.118 450.764 493.366 447.816 492.547 443.967C491.602 433.126 490.726 423.185 489.984 412.423C488.401 400.074 486.684 388.545 485.138 376.267C484.212 368.795 483.116 362.073 482.02 355.35C481.396 355.295 480.772 355.241 480.148 355.186C478.931 362.505 477.713 369.825 476.185 377.819C475.245 381.914 474.616 385.335 473.449 389.353C471.912 397.635 470.913 405.32 469.499 413.625C467.046 425.254 465.008 436.263 462.67 448.002C460.305 460.186 458.239 471.639 455.687 483.68C453.326 494.994 451.451 505.722 449.211 517.118C447.143 527.246 445.442 536.703 443.305 546.759C442.705 549.302 442.54 551.245 442.101 553.864C441.357 557.394 440.887 560.248 439.915 563.554C430.706 578.28 423.798 580.666 408.45 574.017C404.81 567.984 401.547 562.504 398.213 556.412C397.614 555.202 397.086 554.602 396.763 553.855C396.97 553.707 396.777 553.239 396.754 552.416C396.119 549.789 395.45 548.003 394.903 546.18C392.008 536.539 389.145 526.888 386.308 516.455C382.923 504.785 379.5 493.902 376.109 482.295C374.84 477.455 373.54 473.337 372.27 468.474C371.222 464.446 370.143 461.162 369.064 457.878C368.347 457.798 367.63 457.717 366.913 457.636C364.075 465.393 361.237 473.15 357.805 481.28C356.912 483.474 356.614 485.296 356.117 487.338C355.918 487.559 356.014 488.145 355.581 488.516C355.023 489.615 354.898 490.343 354.388 491.685C350.644 500.006 348.176 508.296 339.907 513.152C338.91 513.601 338.421 514.033 337.865 514.464C337.798 514.464 337.662 514.46 336.792 514.525C324.629 514.674 313.335 514.715 302.042 514.852C282.127 515.093 262.212 515.392 241.502 515.488C237.993 515.363 235.279 515.418 231.667 515.138C205.177 514.773 179.586 514.737 153.995 514.716C130.395 514.696 106.795 514.654 83.1951 514.706C77.5971 514.718 71.7373 514.102 67.1673 518.861C66.9225 518.749 66.5 519.083 65.9587 519.2C65.0169 519.893 64.6163 520.471 64.321 521.043C64.4262 521.039 64.3886 520.832 63.7723 520.847C62.2467 521.616 61.3376 522.369 59.9491 523.23C58.8409 523.68 58.4929 524.208 57.9254 525.12C57.0462 525.911 56.6675 526.502 56.3399 527.124C56.3911 527.155 56.436 527.044 55.8113 527.344C49.2337 535.04 44.3833 542.786 46.9756 553.818C47.9933 565.479 49.1765 576.274 50.2612 587.973C51.0718 597.813 51.7994 606.775 53.0146 615.67C53.3285 617.968 55.1733 620.057 56.1572 622.179C55.9996 622.115 55.7972 622.389 55.5574 623.345C55.7756 631.144 56.2335 637.987 56.047 645.087C44.636 654.694 35.759 665.62 28.0613 677.595C26.1968 680.495 23.4557 682.832 20.5176 684.886C17.9265 675.221 15.9355 666.1 14.0391 656.172C12.4004 644.481 10.667 633.597 8.95469 621.837C7.80564 609.605 6.63554 598.247 5.58744 586.089C4.98381 574.664 4.25816 564.04 3.77946 552.523C3.12877 539.571 6.85051 528.373 10.9046 516.642C15.0763 510.471 18.7923 504.811 23.13 498.913C28.6557 494.117 33.5595 489.559 39.1338 484.818C45.6612 481.842 51.5182 479.049 58.1774 476.154C70.0903 475.051 81.2009 474.049 93.2519 473.208C104.953 473.274 115.714 473.181 127.398 473.243C139.64 473.373 150.958 473.346 163.217 473.472C174.279 473.436 184.399 473.247 195.015 473.19C195.838 473.226 196.166 473.131 197.42 473.158C209.659 473.23 220.972 473.18 233.226 473.28C244.902 473.229 255.635 473.029 267.293 473.015C278.954 473.164 289.689 473.127 301.305 473.297C307.434 473.505 312.683 473.505 318.755 473.505C321.992 464.469 325.085 455.837 328.626 446.629C331.439 439.706 333.803 433.359 336.598 426.425C338.553 421.683 340.076 417.528 341.952 412.799C347.051 401.258 351.798 390.291 357.217 379.105C361.421 377.52 364.954 376.155 369.265 374.957C373.643 375.793 377.244 376.463 381.097 377.746C386.558 382.907 388.919 388.957 390.87 395.398C392.751 401.608 395.305 407.614 397.638 414.453C399.571 420.56 401.429 425.924 403.378 432.099C404.518 437.004 405.567 441.097 406.573 445.955C409.204 454.981 411.878 463.243 414.552 471.505C415.412 471.43 416.272 471.355 417.132 471.279C418.882 461.92 420.633 452.56 422.575 442.416C424.537 432.16 426.307 422.688 428.358 412.459C430.633 400.552 432.628 389.403 435.223 377.686C438.999 362.264 442.337 347.443 445.291 332.544C447.213 322.848 448.578 313.042 450.558 302.56C452.85 292.318 454.777 282.801 457.098 272.604C459.49 261.806 461.49 251.689 463.846 240.902C465.749 230.233 467.039 220.113 477.289 213.639C493.86 209.807 500.863 213.974 504.769 229.28C505.495 232.123 506.449 234.907 507.421 238.494C508.312 243.29 509.079 247.309 509.77 252.152C510.009 255.707 510.324 258.439 510.497 261.905C510.896 265.023 511.436 267.407 511.909 270.171C511.841 270.55 512.204 271.23 512.129 271.741C512.177 272.574 512.302 272.895 512.381 274.082C513.764 285.666 515.192 296.385 516.503 307.826C516.864 310.389 517.341 312.23 517.741 314.904C518.746 324.224 519.828 332.711 520.807 341.662C520.768 342.845 521.143 343.316 521.856 343.587C521.884 343.633 521.868 343.74 521.791 344.591C523.213 355.965 524.712 366.488 526.068 377.817C526.174 380.771 526.423 382.919 526.57 385.901C527.764 394.882 529.059 403.027 530.276 411.672C530.308 412.491 530.418 412.81 530.468 413.983C532.008 425.666 533.607 436.495 535.098 448.141C536.512 459.833 538.034 470.709 539.623 482.432C540.799 489.26 541.907 495.24 542.846 502.087C543.867 512.489 545.057 522.024 546.102 532.308C546.365 535.966 546.774 538.877 547.182 541.787C547.847 541.78 548.511 541.773 549.176 541.766C550.65 535.668 553.338 529.858 553.056 522.701C556.577 509.1 559.586 496.023 562.809 482.439C562.872 481.236 562.722 480.538 562.992 479.408C563.595 477.827 563.778 476.679 564.335 474.806C566.652 465.138 568.594 456.194 570.947 446.599C572.988 439.346 574.729 432.769 576.21 426.135C577.172 421.825 577.755 417.432 578.715 412.578C578.815 411.385 578.707 410.69 579.054 409.518C579.726 407.784 579.943 406.527 580.375 404.85C580.59 404.43 580.516 403.49 581.04 402.921C583.378 393.982 585.191 385.612 587.435 376.64C590.33 365.276 592.795 354.513 595.709 343.29C599.61 339.654 603.062 336.478 607.347 333.313C611.485 333.026 614.788 332.727 618.737 332.759C624.894 334.771 628.711 338.535 631.913 343.998C634.707 353.911 637.218 363.079 640.113 372.124C642.786 380.477 645.871 388.699 648.648 397.635C649.055 399.933 649.589 401.574 650.112 403.953C651.068 407.465 652.034 410.241 652.964 413.752C656.23 424.101 659.533 433.716 662.775 443.959C663.263 446.12 663.812 447.651 664.335 449.958C666.453 457.296 668.598 463.858 671.148 471.157C675.446 472.302 679.339 473.067 683.232 473.07C767.321 473.139 851.41 473.123 935.498 473.119C938.489 473.118 941.517 473.332 944.452 472.913C945.821 472.717 947.007 471.244 948.857 469.99C955.026 467.792 960.966 466.612 965.367 461.141C968.74 456.261 971.501 451.659 974.781 446.411C975.634 434.883 975.968 424.002 976.428 412.374C976.344 410.647 976.134 409.667 976.11 407.844C976.22 401.734 976.144 396.468 976.325 390.395C976.493 386.791 976.405 383.993 976.509 380.528C976.623 378.944 976.544 378.028 976.676 376.61C977.064 375.791 977.24 375.474 977.415 375.156Z" fill="#22AAA7"/>
<path d="M582.462 1249.17C576.037 1252.05 569.612 1254.93 562.717 1258.31C551.273 1263.84 540.3 1268.87 528.341 1274.45C527.059 1275.19 526.762 1275.38 526.466 1275.57C526.138 1275.59 525.74 1275.5 525.491 1275.65C514.875 1282.14 504.385 1280.8 493.207 1275.11C481.601 1269.78 470.742 1264.52 459.161 1259.2C452.249 1255.85 446.059 1252.56 438.809 1248.6C432.757 1245.42 427.767 1242.91 422.331 1239.9C410.779 1233.1 399.672 1226.79 388.249 1219.97C385.174 1217.98 382.415 1216.5 379.249 1214.4C370.899 1208.71 362.955 1203.64 354.609 1198.02C345.578 1191.49 336.95 1185.5 327.753 1179.18C324.549 1176.73 321.912 1174.62 318.859 1171.97C311.919 1166.62 305.395 1161.82 298.63 1156.52C297.751 1155.69 297.112 1155.37 296.461 1155.08C296.448 1155.13 296.535 1155.09 296.353 1154.62C295.583 1153.87 294.995 1153.59 294.409 1153.23C294.412 1153.16 294.27 1153.2 293.987 1152.6C288.473 1147.41 283.246 1142.8 278.009 1138.21C267.567 1129.05 257.12 1119.9 246.437 1110.31C245.781 1109.3 245.219 1108.98 244.365 1108.26C234.709 1097.98 225.199 1088.36 215.314 1078.13C213.516 1076.3 212.092 1075.09 210.586 1073.25C192.083 1049.8 173.664 1026.98 154.978 1003.57C151.336 998.317 147.962 993.67 144.386 988.376C140.227 982.184 136.267 976.64 132.19 970.416C126.143 959.791 120.108 949.909 114.314 939.887C106.885 927.038 99.65 914.077 92.2441 900.464C89.1633 893.473 86.0684 887.229 83.1964 880.884C75.6893 864.298 68.2795 847.669 60.7579 830.295C56.7095 818.682 52.7341 807.832 48.6968 796.213C46.1065 787.943 43.5782 780.44 41.0052 772.2C40.0606 768.683 39.1608 765.904 38.3019 762.581C37.8702 761.552 37.3975 761.067 37.0408 760.582C37.1567 760.584 37.1807 760.353 37.2103 759.583C34.9476 750.002 32.7772 741.156 30.2894 732.4C29.5366 729.75 27.9054 727.35 26.5806 724.008C24.4434 712.505 22.4021 701.829 20.6035 690.462C20.9367 688.324 21.0272 686.876 21.1177 685.429C23.4557 682.833 26.1968 680.495 28.0613 677.595C35.7589 665.62 44.6359 654.695 56.4419 645.636C57.9233 647.662 58.3654 649.396 58.6911 651.789C59.0192 653.665 59.4637 654.883 59.8688 656.42C59.8292 656.739 60.2665 657.212 60.1946 658.051C62.6226 671.282 65.1224 683.673 67.743 696.831C70.4754 707.593 73.087 717.589 75.7544 728.375C78.9238 739.905 82.0374 750.645 85.2347 762.184C87.1404 768.326 88.9623 773.669 90.8094 779.73C93.1244 786.054 95.4142 791.66 97.842 798.027C102.194 809.556 106.407 820.324 110.663 831.814C115.33 842.057 119.956 851.579 124.65 861.739C126.01 864.506 127.3 866.634 128.569 869.506C134.382 881.357 140.218 892.462 146.166 904.267C150.976 913.035 155.673 921.105 160.573 929.759C162.439 932.658 164.102 934.973 165.968 937.973C170.284 944.715 174.397 950.77 178.614 957.506C181.742 962.543 184.765 966.9 188.017 971.924C196.271 982.976 204.297 993.361 212.439 1004.32C213.834 1006.33 215.113 1007.76 216.667 1009.79C223.934 1018.68 230.832 1027.03 237.974 1035.17C240.218 1037.73 243.119 1039.71 245.802 1041.77C245.885 1041.59 245.584 1041.85 245.471 1042.52C256.41 1054.49 267.461 1065.79 278.775 1077.71C291.755 1089.66 304.472 1100.99 317.62 1112.84C330.126 1122.71 342.201 1132.08 354.626 1141.97C357.368 1144.1 359.76 1145.72 362.516 1147.9C371.373 1154.08 379.866 1159.68 388.747 1165.83C400.821 1173.54 412.507 1180.7 424.618 1188.36C434.816 1194.31 444.59 1199.75 454.777 1205.75C461.521 1209.27 467.85 1212.24 474.604 1215.76C480.441 1218.86 485.852 1221.41 491.853 1224.38C503.38 1231.06 514.377 1235.07 525.721 1225.66C525.972 1225.45 526.209 1225.23 527.169 1224.96C534.083 1221.65 540.281 1218.39 547.188 1215.07C552.746 1212.37 557.595 1209.72 563.142 1206.98C574.673 1200.81 585.507 1194.74 596.969 1188.56C599.861 1186.6 602.124 1184.75 605.064 1182.77C614.705 1176.93 623.669 1171.2 633.318 1165.34C644.901 1157.43 655.799 1149.66 667.277 1141.71C668.722 1140.72 669.586 1139.92 671.083 1138.9C682.376 1129.91 693.036 1121.16 704.304 1112.12C712.409 1105.31 720.047 1098.92 727.381 1092.2C755.3 1066.63 781.789 1039.71 805.18 1009.16C806.563 1007.62 807.412 1006.33 808.823 1004.67C817.258 993.285 825.13 982.266 833.549 970.948C836.266 967.205 838.436 963.76 841.21 959.901C848.095 949.382 854.375 939.279 861.228 928.823C866.783 919.412 871.765 910.354 877.262 900.844C882.796 890.273 887.814 880.155 893.293 869.683C893.958 868.597 894.163 867.866 894.582 866.954C894.796 866.774 894.557 866.269 895.123 865.761C900.579 853.882 905.471 842.512 910.879 830.638C915.333 819.393 919.269 808.651 923.154 797.836C923.101 797.763 923.279 797.739 923.696 797.435C924.23 796.466 924.347 795.801 924.917 794.56C927.424 787.743 929.48 781.502 931.934 774.726C933.341 770.69 934.349 767.189 935.73 763.067C939.419 750.7 942.737 738.954 946.373 726.532C947.266 722.947 947.842 720.038 948.749 716.472C949.636 712.938 950.19 710.06 951.14 706.642C951.925 703.476 952.314 700.852 953.21 697.657C953.987 695.114 954.258 693.141 954.84 690.44C957.089 678.878 959.027 668.046 961.402 656.573C963.337 644.319 964.834 632.705 966.499 620.448C966.674 618.924 966.68 618.043 967.204 616.548C968.633 606.339 969.545 596.744 970.752 586.379C971.928 574.824 972.809 564.038 973.922 552.466C974.387 549.101 974.621 546.523 974.837 544.137C978.512 542.482 981.759 541.019 985.698 539.405C989.946 537.595 993.701 536.256 997.019 534.211C1004.46 529.627 1012.58 525.761 1016.81 517.604C1016.63 517.685 1016.87 517.995 1017.2 518.135C1017.53 518.274 1018.24 518.423 1018.24 518.423C1018.24 518.423 1018.96 518.414 1019.03 519.218C1018.94 531.064 1018.78 542.106 1018.45 554.042C1017.66 565.678 1017.04 576.419 1016.09 587.876C1015.43 592.804 1015.09 597.016 1014.56 602.042C1013.78 609.607 1013.19 616.358 1012.31 623.883C1011.13 630.212 1010.29 635.776 1009.35 641.323C1006.53 657.954 1003.67 674.579 1000.53 691.938C998.12 702.62 996.013 712.57 993.437 723.132C989.951 736.092 986.934 748.439 983.511 761.266C982.628 763.765 982.152 765.785 981.209 768.432C977.904 778.38 975.066 787.7 971.712 797.524C967.46 808.895 963.723 819.764 959.479 831.153C953.248 845.514 947.681 859.421 941.747 873.17C937.667 882.623 933.076 891.855 928.254 901.723C921.894 913.773 915.994 925.286 909.508 937.141C902.671 947.93 896.42 958.375 889.596 969.191C884.869 976.298 880.715 983.036 876.015 990.1C871.782 995.991 868.096 1001.55 863.813 1007.43C850.843 1023.36 838.472 1038.98 826.093 1054.6C820.75 1061.34 815.389 1068.07 809.605 1074.96C808.655 1075.49 808.297 1075.98 807.48 1076.86C796.018 1088.43 785.179 1099.73 773.877 1111.21C772.838 1111.76 772.474 1112.29 771.698 1113.2C767.979 1116.4 764.905 1119.36 761.788 1122.29C754.631 1129 747.453 1135.69 739.726 1142.69C737.661 1144.39 736.154 1145.79 733.971 1147.31C719.536 1158.21 705.836 1169.07 691.994 1179.75C683.663 1186.18 675.111 1192.32 665.947 1198.77C657.534 1204.28 649.832 1209.61 642.245 1214.99C642.359 1215.04 642.429 1214.8 641.829 1214.9C640.301 1215.7 639.372 1216.41 637.784 1217.17C634.766 1219.07 632.408 1220.94 629.338 1222.85C618.436 1228.7 608.245 1234.5 597.376 1240.51C591.954 1243.54 587.208 1246.36 582.462 1249.17Z" fill="#22446D"/>
<path d="M92.1836 626.073C92.833 622.98 93.6076 620.775 94.4388 617.871C106.165 605.482 115.55 606.558 125.685 621.007C126.288 621.335 126.137 621.237 126.074 622.149C127.213 634.621 128.417 646.181 129.65 658.574C131.951 670.643 134.222 681.879 136.459 693.931C139.077 704.916 141.73 715.087 144.371 726.024C148.552 738.244 152.744 749.698 156.939 761.866C163.012 776.307 166.937 791.06 176.455 803.888C181.63 813.616 186.712 822.638 191.977 832.334C199.474 843.769 206.788 854.528 214.398 865.902C229.051 886.247 246.117 903.535 263.682 920.324C269.383 925.774 275.964 930.302 282.392 935.705C283.235 936.482 283.829 936.806 284.693 937.746C295.39 945.674 305.817 952.986 316.623 960.811C323.56 965.067 330.118 968.81 337.07 972.828C337.464 973.104 338.405 973.308 338.616 973.746C339.328 974.685 339.927 974.869 341.173 975.176C351.118 979.682 360.515 983.747 370.123 987.738C370.336 987.663 370.233 987.224 370.229 987.849C370.994 988.741 371.764 989.009 373.073 989.75C384.32 993.426 395.027 996.631 405.785 999.822C405.836 999.809 405.933 999.768 406.205 1000.19C407.125 1000.7 407.774 1000.79 409.157 1001.14C417.138 1002.85 424.382 1004.29 432.288 1006.14C438.172 1007.29 443.395 1008.02 449.424 1008.95C455.651 1009.63 461.072 1010.1 466.963 1010.76C467.757 1010.85 468.081 1010.76 469.195 1010.83C472.122 1010.9 474.259 1010.81 477.313 1010.92C501.651 1011.41 524.725 1009.17 547.891 1001.73C559.289 998.207 569.902 994.749 581.258 991.248C606.931 981.726 629.779 968.606 651.202 951.549C657.424 946.509 663.054 941.881 668.61 937.209C668.535 937.165 668.467 937.324 669.036 937.169C670.094 936.412 670.583 935.81 671.455 935.163C672.357 934.852 672.596 934.427 673.084 933.542C673.968 932.543 674.322 931.845 674.569 931.161C674.463 931.174 674.501 931.385 675.078 931.27C676.006 930.494 676.356 929.834 676.597 929.173C676.488 929.172 676.505 929.39 677.088 929.286C678.018 928.513 678.364 927.845 678.6 927.175C678.49 927.173 678.507 927.392 679.091 927.29C680.021 926.517 680.367 925.848 680.59 925.188C680.468 925.199 680.507 925.441 681.075 925.409C682.405 924.587 683.167 923.797 684.125 923.028C684.319 923.05 684.326 922.659 684.928 922.414C691.033 915.793 696.536 909.417 702.625 902.703C708.338 897.656 713.464 892.947 719.405 888.317C730.695 887.866 736.433 893.443 738.877 903.766C737.333 908.752 735.984 912.99 734.084 917.598C730.983 920.996 728.45 924.039 725.882 927.051C708.04 947.975 687.732 966.314 665.868 983.868C658.263 988.461 651.488 993.228 644.272 997.196C628.416 1005.92 612.338 1014.23 595.59 1022.8C575.655 1029.2 556.801 1036.63 536.148 1039.5C534.695 1039.83 533.762 1040.26 531.915 1040.68C524.135 1041.62 517.268 1042.58 509.838 1043.45C508.629 1043.74 507.984 1044.1 506.573 1044.3C502.698 1044.5 499.59 1044.85 495.577 1045.04C487.945 1045.03 481.22 1045.19 473.622 1045.16C465.256 1044.61 457.762 1044.25 449.577 1043.65C447.427 1043.4 445.969 1043.39 443.685 1043.16C440.034 1042.62 437.207 1042.31 433.94 1041.71C432.447 1041.42 431.394 1041.4 429.524 1041.15C425.78 1040.81 422.726 1041.21 419.948 1040.51C409.523 1037.89 399.188 1034.91 388.236 1031.7C376.849 1027.65 366.045 1023.97 354.703 1019.83C342.898 1014.07 331.63 1008.76 319.827 1003.01C306.994 994.865 294.697 987.164 281.963 978.961C277.906 975.958 274.284 973.459 270.338 970.373C262.848 964.198 255.682 958.61 248.202 952.437C242.245 946.804 236.602 941.755 230.959 936.706C226.09 931.628 221.222 926.549 215.487 920.562C209.283 913.439 203.945 907.224 198.392 900.366C192.329 892.811 186.481 885.9 180.441 878.334C177.051 873.347 173.854 869.014 170.598 864.017C167.993 859.693 165.447 856.033 162.901 852.373C160.454 847.525 158.007 842.677 154.948 836.861C153.741 834.94 153.147 833.988 152.48 832.51C151.874 831.567 151.339 831.15 150.785 830.715C150.764 830.697 150.828 830.654 150.828 830.654C150.444 829.41 150.2 828.101 149.656 826.931C141.488 809.336 133.28 791.759 124.579 773.011C123.575 771.24 123.073 770.638 122.571 770.035C122.571 770.035 122.921 769.686 122.762 768.754C121.944 766.584 121.285 765.345 120.627 764.106C120.627 764.106 120.907 763.631 120.634 762.862C119.751 761.696 119.141 761.299 118.531 760.903C118.531 760.903 118.516 761.059 118.554 760.246C115.391 748.528 112.191 737.622 108.938 725.922C106.152 714.45 103.418 703.773 100.656 692.253C100.007 688.303 99.327 685.205 98.78 682.084C97.3215 673.763 95.9203 665.433 94.5273 656.28C93.8387 651.334 93.119 647.214 92.3994 643.094C92.3691 637.716 92.339 632.339 92.1836 626.073Z" fill="#23A9A7"/>
<path d="M735.027 1001.35C733.019 1002.88 731.012 1004.41 728.132 1006.8C718.975 1014.17 710.689 1020.68 701.559 1027.2C690.378 1029.14 684.143 1024.19 680.464 1014.35C680.459 1012.15 680.375 1010.68 680.533 1008.61C680.924 1007.19 681.073 1006.35 681.646 1005.01C684.817 1001.24 687.268 997.654 690.371 994.769C696.185 989.365 702.834 984.807 708.317 979.109C720.203 966.759 731.574 953.911 743.696 940.934C753.192 927.65 762.149 914.698 771.608 901.291C777.649 889.638 783.189 878.442 789.175 866.871C789.908 865.384 790.195 864.271 791.036 862.727C795.254 851.925 798.92 841.553 803.046 830.598C803.861 828.737 804.295 827.476 804.553 826.181C806.482 816.514 808.377 806.841 810.65 796.426C812.817 780.246 815.685 764.872 813.858 748.398C813.257 741.423 812.604 735.263 812.067 728.627C812.125 727.413 811.745 726.923 810.984 726.639C810.923 726.596 811.051 726.522 811.09 725.695C808.707 714.231 806.285 703.592 803.865 692.242C801.496 685.089 799.412 678.525 796.67 672.247C794.362 666.963 791.289 662.013 788.628 656.972C788.702 657.029 788.847 656.914 788.746 656.198C786.046 650.558 783.837 645.374 780.756 640.773C776.255 634.051 771.129 627.749 766.302 620.577C762.504 615.482 758.673 611.078 754.491 606.105C750.839 602.313 747.819 598.705 744.128 596.017C742.05 594.505 738.454 593.303 736.257 594.054C728.969 596.546 721.799 599.612 714.383 604.914C721.596 610.926 727.872 616.157 734.466 621.973C741.249 629.509 747.715 636.458 754.411 644.031C757.719 648.919 760.796 653.183 764.067 658.137C769.512 669.628 774.763 680.428 780.042 692.049C783.062 704.933 786.052 716.997 788.971 729.747C789.15 731.311 789.4 732.188 789.427 733.879C789.757 743.49 790.311 752.287 790.69 761.967C789.373 774.932 788.232 787.015 786.882 799.828C786.574 802.07 786.475 803.581 785.838 805.6C783.131 814.508 780.963 822.909 778.386 831.909C775.449 839.339 772.92 846.169 769.762 853.352C768.131 854.582 767.229 855.621 766.111 856.309C759.139 860.599 751.46 860.368 745.683 855.594C739.596 850.565 737.999 844.229 740.568 836.779C741.212 834.911 741.67 832.979 742.631 830.483C743.558 828.68 744.208 827.509 744.556 826.254C747.252 816.549 749.889 806.827 752.928 796.424C758.561 776.217 756.646 756.367 755.943 736.583C755.901 735.407 754.898 734.265 754.389 732.377C754.178 730.209 753.919 728.772 753.787 726.561C751.737 714.341 749.174 703.028 742.716 692.277C737.173 678.26 730.077 666.019 719.489 655.24C709.604 646.011 700.039 637.319 690.255 628.881C688.648 627.496 686.077 627.228 683.265 626.498C676.687 632.106 670.795 637.659 664.292 643.787C671.798 648.192 678.004 651.834 684.453 655.891C685.15 656.797 685.705 657.098 686.688 657.79C692.985 664.14 699.113 669.759 704.883 675.724C709.004 679.983 712.645 684.706 716.55 689.785C717.201 691.262 717.802 692.176 718.444 693.822C722.752 705.467 727.02 716.38 731.219 727.96C731.642 730.806 732.132 732.987 732.49 735.827C732.564 737.347 732.772 738.209 732.92 739.901C733.333 747.521 733.806 754.311 733.863 761.781C731.825 774.016 730.203 785.571 728.225 797.771C721.963 813.232 716.467 828.231 709.993 842.795C706.235 851.249 700.904 859.003 695.692 867.382C681.352 886.506 666.108 903.954 647.541 919.152C640.671 924.568 634.433 929.771 628.284 934.985C628.371 934.994 628.348 934.819 627.873 934.908C627.399 934.997 626.656 935.613 626.006 935.748C620.954 938.875 616.552 941.867 611.484 945.055C591.784 955.98 571.95 964.81 550.838 970.64C548.652 971.244 546.576 972.25 543.607 972.967C531.972 975.02 521.18 977.177 509.9 979.255C509.412 979.178 508.457 979.433 507.947 979.33C507.11 979.348 506.785 979.47 505.608 979.511C495.331 980.079 485.907 980.727 475.672 981.188C465.417 981.003 456.784 979.017 450.565 970.573C450.415 969.754 450.283 969.442 450.2 968.609C450.087 967.778 449.925 967.468 449.827 966.355C449.873 963.401 449.854 961.252 450.083 958.634C450.32 957.813 450.31 957.461 450.704 956.556C454.606 951.52 458.004 946.892 465.417 946.92C481.132 946.827 496.039 948.243 511.374 944.346C518.281 943.264 524.514 942.46 530.521 940.824C535.367 939.504 539.939 937.18 544.6 935.497C544.567 935.692 544.943 935.815 545.688 935.984C550.777 934.566 555.122 932.978 559.74 931.486C560.014 931.582 560.432 931.181 561.143 931.169C564.392 929.904 566.929 928.65 569.76 927.46C570.052 927.523 570.46 927.085 571.057 927.075C572.622 926.44 573.59 925.816 574.512 925.155C574.465 925.118 574.479 925.236 575.1 925.214C576.72 924.536 577.718 923.879 579.138 923.192C579.561 923.163 580.234 922.646 580.925 922.547C611.447 909.276 635.134 888.296 655.979 863.757C664.343 853.911 673.098 844.284 677.929 831.245C681.056 824.869 683.689 818.968 686.911 812.675C694.328 796.032 699.954 779.508 699.387 760.656C699.405 748.692 699.729 737.476 694.858 726.252C693.103 717.775 690.152 710.686 684.333 704.322C680.979 700.159 677.787 696.636 674.416 692.603C673.649 691.713 673.062 691.332 672.46 691.019C672.447 691.087 672.58 691.048 672.452 690.53C671.725 689.667 671.127 689.323 670.228 688.38C663.434 683.517 656.941 679.251 650.03 674.448C647.642 674.465 644.727 674.393 643.87 675.686C640.589 680.633 637.97 686.018 634.86 691.908C639.845 695.52 645.073 698.464 650.357 701.331C650.414 701.253 650.248 701.156 650.42 701.669C651.205 702.533 651.819 702.884 652.703 703.848C661.614 710.129 666.491 718.974 672.25 727.955C676.818 739.051 677.344 749.944 676.929 761.759C673.727 773.926 670.767 785.277 667.354 797.153C661.352 808.004 655.804 818.329 649.647 828.974C637.84 841.855 626.644 854.418 614.936 866.988C613.736 867.683 613.048 868.37 611.744 869.325C600.843 876.592 590.559 883.59 579.558 890.741C567.425 895.742 556.009 900.59 543.806 905.422C532.159 907.976 521.301 910.547 509.561 913.051C497.931 913.7 487.183 914.416 475.646 914.896C463.392 913.447 451.928 912.233 439.821 910.613C428.278 907.362 417.378 904.518 406.156 901.389C404.999 901.068 404.162 901.032 402.805 900.452C391.753 895.505 381.223 891.102 370.581 886.781C370.469 886.864 370.63 887.09 370.532 886.547C369.781 885.701 369.129 885.398 368.13 884.513C351.509 872.733 335.234 861.536 318.622 849.787C311.806 843.113 305.327 836.99 298.562 830.258C293.648 824.838 289.019 820.026 284.152 814.583C279.485 808.285 275.057 802.618 270.496 796.269C263.192 783.918 256.021 772.249 248.724 759.87C247.004 755.613 245.502 752.022 243.796 748.532C240.498 741.788 237.484 734.992 238.398 726.586C245.808 714.808 250.198 713.309 264.375 717.716C264.958 718.736 265.49 719.093 266.309 719.88C268.335 722.853 270.217 725.184 271.927 727.548C271.755 727.582 271.751 727.932 271.786 728.639C277.428 739.963 283.035 750.581 288.722 761.874C292.683 768.066 296.563 773.583 300.63 779.752C304.778 785.295 308.74 790.187 312.91 795.707C320.849 804.143 328.578 811.952 336.415 820.159C336.87 821.074 337.351 821.286 338.239 821.7C339.14 822.62 339.769 823.036 340.611 824.044C343.774 826.849 346.723 829.061 350.063 831.864C357.07 836.954 363.685 841.453 370.695 846.48C382.128 852.513 393.166 858.019 404.648 864.055C408.206 865.429 411.32 866.272 414.93 867.638C423.781 870.43 432.136 872.699 441.191 875.314C452.676 877.143 463.459 878.625 475.14 880.396C487.681 881.164 499.314 881.534 511.439 877.749C517.759 876.508 523.37 875.684 528.684 873.952C534.137 872.173 539.301 869.506 544.533 867.292C544.474 867.357 544.565 867.505 545.325 867.59C558.49 863.245 570.492 858.049 581.378 849.308C589.136 844.095 597.016 839.869 601.513 831.244C606.493 826.699 610.809 822.277 615.716 817.543C621.083 810.935 626.998 805.313 628.712 796.399C630.979 792.839 633.424 790.06 634.631 786.82C637.533 779.03 639.856 771.023 642.796 762.402C646.793 742.561 634.795 725.295 615.913 723.969C619.643 736.478 619.433 748.905 616.624 761.965C615.244 765.752 614.201 768.904 612.664 772.487C607.465 780.839 602.76 788.761 598.255 796.753C598.455 796.823 598.044 796.732 597.551 796.882C596.701 797.6 596.344 798.167 595.471 799.141C589.997 804.619 585.04 809.691 579.468 815.04C572.689 819.932 566.526 824.547 559.677 829.307C554.04 831.849 549.088 834.245 543.398 836.782C531.893 840.395 521.126 843.868 509.867 847.271C509.375 847.201 508.399 847.399 507.747 847.264C506.243 847.341 505.392 847.553 503.707 847.722C494.072 848.203 485.27 848.727 475.818 849.052C474.268 848.916 473.368 848.978 471.954 848.916C471.092 848.843 470.743 848.893 469.603 848.74C459.241 847.112 449.672 845.688 439.452 843.844C428.829 839.751 418.857 836.078 408.523 831.985C407.092 831.392 406.023 831.219 404.457 830.54C392.829 823.349 381.697 816.665 370.207 809.462C364.536 805.018 359.225 801.092 353.725 796.554C347.186 789.63 340.836 783.317 334.263 776.38C329.79 770.826 325.539 765.895 321.044 760.287C314.06 749.177 307.321 738.744 300.625 727.987C300.515 727.161 300.178 726.944 299.538 726.307C298.472 724 297.525 722.4 296.485 720.097C291.842 709.918 287.292 700.441 282.717 690.202C279.232 678.658 275.772 667.877 272.063 656.332C270.449 647.556 269.083 639.543 267.851 630.808C267.381 627.722 266.776 625.359 266.282 622.102C266.219 616.228 266.367 611.207 265.731 606.287C265.427 603.933 264.217 600.633 262.422 599.721C255.134 596.021 247.675 592.39 238.433 591.797C237.932 604.484 238.318 616.634 241.014 629.448C242.713 639.179 244.567 648.111 246.373 657.933C246.966 673.747 248.382 678.733 229.887 683.313C220.192 681.665 215.67 675.888 213.672 667.482C212.846 664.01 211.666 660.622 210.709 656.323C209.239 644.688 207.708 633.927 206.252 622.261C205.656 609.837 204.985 598.318 204.254 585.765C201.047 586.011 198.582 586.199 195.331 586.175C190.751 586.28 186.956 586.598 183.078 586.924C183.078 598.936 183.078 609.961 182.926 621.823C184.484 634.172 186.195 645.684 187.899 658.065C188.187 661.527 188.098 664.236 188.846 666.69C191.343 674.882 190.524 684.096 196.272 691.211C196.205 691.156 196.059 691.251 195.781 691.674C195.658 692.397 195.813 692.697 195.929 693.82C197.551 700.102 199.213 705.561 200.851 711.74C202.719 717.355 204.611 722.25 206.52 727.886C211.278 739.496 216.019 750.365 220.8 761.938C223.349 767.679 225.551 772.901 228.438 777.71C232.823 785.016 237.684 792.036 242.354 799.622C242.536 800.697 242.938 801.096 243.828 801.883C244.974 804.06 245.861 805.616 246.72 807.695C247.245 808.587 247.798 808.957 248.371 809.251C248.392 809.175 248.237 809.202 248.438 809.733C249.179 810.773 249.719 811.283 250.282 812.178C250.306 812.564 250.838 813.125 250.875 813.881C251.34 818.164 251.768 821.691 252.034 825.424C251.873 825.629 252.148 826.072 251.648 826.56C250.698 828.354 250.249 829.66 249.324 831.23C247.939 832.599 247.029 833.704 245.365 835.063C235.536 839.955 227.734 837.694 220.668 830.321C219.084 828.039 217.6 826.349 215.912 824.141C215.469 823.339 215.229 823.055 214.828 822.249C214.063 821.342 213.459 820.957 212.752 819.874C208.529 811.839 204.409 804.5 200.157 796.474C193.804 783.27 187.583 770.753 181.182 757.53C177.396 746.941 173.789 737.059 170.163 726.419C167.606 718.13 165.067 710.599 162.529 702.335C161.762 698.772 160.995 695.942 160.237 692.333C157.694 680.093 155.142 668.631 152.697 656.276C151.412 643.913 150.021 632.444 148.777 620.057C148.632 608.432 148.339 597.724 148.277 586.295C149.895 577.744 153.369 570.891 158.819 564.538C159.912 563.428 160.471 562.495 160.791 561.563C160.552 561.565 161.023 561.647 161.655 561.443C166.354 558.547 170.42 555.855 174.486 553.163C181.238 552.55 187.99 551.938 195.603 551.17C200.978 551.282 205.492 551.549 210.798 551.649C219.306 552.781 227.021 554.079 235.599 555.361C241.183 556.66 245.903 557.977 251.871 559.738C254.928 560.54 256.737 560.896 258.547 561.252C258.547 561.252 258.992 561.568 259.569 561.842C260.851 562.297 261.554 562.477 262.257 562.658C262.994 562.971 263.731 563.285 265.147 563.61C265.827 563.622 265.974 563.603 266.211 564.068C267.106 564.691 267.764 564.849 269.03 565.386C279.898 570.428 290.157 575.093 300.731 580.293C304.676 582.954 308.308 585.08 312.313 587.79C319.966 593.861 327.245 599.35 334.825 605.44C340.484 611.051 345.842 616.061 351.355 621.692C357.803 630.658 364.095 639.002 370.384 647.926C371.068 649.376 371.756 650.246 372.583 651.715C373.262 652.925 373.802 653.534 374.249 654.604C374.675 655.783 375.193 656.503 375.911 657.924C382.084 668.866 388.058 679.107 394.174 689.873C394.891 690.8 395.465 691.201 395.98 691.476C395.92 691.35 395.955 691.627 396.132 692.27C399.578 697.16 402.847 701.408 406.397 706.254C414.576 713.671 422.472 720.49 430.7 727.875C434.104 730.125 437.178 731.81 440.712 734.017C451.922 739.778 462.666 745.03 475.344 745.949C476.495 746.161 477.005 745.877 477.637 745.741C478.731 746.405 479.5 746.559 480.962 746.922C482.616 747.075 483.575 747.019 485.424 747.156C492.921 747.089 499.53 746.827 506.707 746.698C508.328 746.473 509.381 746.115 511.273 745.774C524.394 743.747 536.159 740.284 547.28 733.154C550.481 731.318 553.006 729.537 555.531 727.755C562.979 721.95 570.427 716.145 578.782 709.468C583.989 702.799 588.289 697.001 592.589 691.204C599.643 680.301 606.697 669.397 613.894 657.844C614.037 657.194 614.605 656.714 615.091 655.984C615.851 654.532 616.124 653.81 616.953 652.714C624.377 642.568 631.245 632.797 638.113 623.026C638.113 623.026 638.277 623.134 638.821 622.733C639.817 621.28 640.269 620.229 640.721 619.177C640.721 619.177 640.515 619.157 641.056 619.114C641.949 618.437 642.302 617.804 642.654 617.17C642.654 617.17 642.49 617.165 643.01 617.071C643.89 616.371 644.249 615.765 644.608 615.158C644.608 615.158 644.468 615.143 644.965 615.017C645.825 614.309 646.189 613.726 646.552 613.144C646.552 613.144 646.444 613.118 646.95 612.988C647.842 612.287 648.228 611.717 648.614 611.146C649.323 611.111 649.862 610.789 650.961 609.436C659.936 601.495 668.179 594.299 677.047 586.963C679.946 584.976 682.22 583.129 685.188 581.148C696.72 575.595 707.559 570.175 719.131 564.741C734.004 558.633 748.777 554.899 763.992 552.735C772.177 551.571 780.335 550.207 788.505 548.934C800.676 549.696 812.994 549.606 825.391 555.665C827.118 556.465 827.803 556.707 828.489 556.95C828.489 556.95 828.501 557.096 828.853 557.575C830.263 558.485 831.32 558.917 832.378 559.348C832.378 559.348 832.392 559.193 832.502 559.692C833.229 560.475 833.845 560.759 834.462 561.044C834.462 561.044 834.448 561.131 834.785 561.702C838.861 566.304 842.719 570.233 846.307 574.394C849.858 578.512 853.138 582.864 856.656 587.813C862.721 600.02 868.666 611.526 874.626 623.766C878.811 634.164 882.981 643.827 887.167 653.99C887.581 655.02 887.98 655.55 888.162 656.257C887.945 656.433 888.116 656.965 888.121 657.786C890.211 665.584 892.296 672.56 894.38 679.537C894.976 683.587 895.571 687.638 896.297 693.251C898.39 705.627 900.353 716.44 902.22 728.157C902.809 739.708 903.494 750.355 904.178 761.002C903.719 764.162 902.874 767.324 902.88 770.484C902.893 777.491 900.692 783.232 893.505 787.891C876.932 789.487 870.955 784.231 870.21 769.289C870.081 766.701 869.495 764.136 869.347 760.607C869.133 749.46 868.693 739.267 868.337 728.228C866.02 714.615 863.619 701.85 861.087 688.435C860.7 686.941 860.446 686.096 860.282 684.473C857.226 674.796 854.08 665.898 850.888 656.219C846.07 644.653 841.296 633.868 836.519 622.368C832.771 615.815 829.027 609.976 825.092 603.475C823.856 600.769 822.911 598.666 821.748 596.693C814.528 584.445 795.497 579.451 782.207 586.273C790.859 597.955 799.511 609.636 808.312 622.003C813.403 631.177 818.344 639.666 823.449 648.803C824.964 652.209 826.317 654.966 827.766 658.479C831.537 669.926 835.211 680.616 838.864 692.069C840.838 702.954 842.833 713.076 844.683 723.782C845.058 725.374 845.577 726.382 846.115 727.412C846.133 727.433 846.096 727.492 846.035 728.405C846.453 739.995 846.933 750.673 847.183 762.238C846.292 774.384 845.631 785.643 844.575 797.611C842.212 809.22 840.244 820.12 837.8 831.569C832.778 845.585 828.494 859.149 823.596 872.487C820.304 881.45 816.145 890.096 811.884 899.241C810.853 900.672 810.312 901.747 809.278 903.247C807.839 906.096 806.894 908.518 805.417 911.333C799.908 920.117 794.932 928.509 789.413 937.282C783.355 945.359 777.839 953.055 771.742 961.104C764.738 968.661 758.354 975.902 751.878 983.059C746.316 989.206 740.648 995.257 735.027 1001.35ZM512.045 811.317C522.094 807.102 532.143 802.888 543.194 798.596C543.614 798.104 544.033 797.613 545.811 796.859C565.742 785.045 581.431 765.841 581.129 753.864C568.882 760.11 556.548 766.399 542.695 772.98C531.907 775.862 521.119 778.744 508.488 781.406C498.459 781.511 488.431 781.615 476.875 781.227C474.734 781.196 472.593 781.165 469.454 780.755C468.755 780.795 468.055 780.835 466.115 779.876C457.636 777.524 449.156 775.171 439.67 771.839C431.979 768.178 424.287 764.517 416.037 759.661C412.181 756.846 408.324 754.031 403.563 750.225C397.052 744.088 389.931 738.468 384.173 731.69C375.855 721.899 368.525 711.268 360.518 699.694C358.463 696.873 356.409 694.052 354.46 689.779C349.057 680.904 343.654 672.028 338.029 661.951C336.872 660.308 335.714 658.666 334.138 655.734C324.793 643.058 315.284 630.545 300.168 621.145C300.65 634.744 303.197 646.122 307.91 658.723C311.329 671.023 314.125 683.572 322.052 695.466C326.527 703.699 331.002 711.933 335.913 721.32C337.307 723.317 338.701 725.314 340.359 728.683C356.354 755.004 378.15 775.383 405.004 792.398C408.252 793.908 411.5 795.418 415.563 798.025C423.847 801.081 432.132 804.136 441.559 808.122C452.936 811.732 464.486 814.302 477.894 814.722C488.927 815.285 499.947 815.72 512.045 811.317Z" fill="#22AAA7"/>
<path d="M598.435 1152.12C586.543 1156.72 575.094 1160.79 562.221 1165.19C550.004 1168.09 539.212 1170.66 527.552 1173.16C515.216 1174.34 503.747 1175.61 491.401 1176.55C479.822 1175.51 469.119 1174.79 457.924 1173.67C446.615 1165.71 445.162 1157.6 452.967 1144.95C455.19 1143.55 456.844 1142.37 459.407 1141.21C465.878 1141.38 471.44 1141.59 477.004 1141.68C482.188 1141.77 487.375 1141.71 493.355 1142C505.705 1140.79 517.262 1139.3 529.635 1137.81C541.131 1134.8 551.812 1131.8 563.236 1128.79C575.637 1123.62 587.296 1118.46 599.664 1113.22C602.106 1112.17 603.851 1111.22 605.572 1110.23C617.86 1103.14 629.98 1109.76 630.794 1124.05C630.926 1126.36 630.808 1128.69 630.806 1131.01C625.602 1135.26 620.398 1139.5 614.82 1144.27C609.257 1147.07 604.068 1149.32 598.435 1152.12Z" fill="#23A9A7"/>
<path d="M647.647 1041.55C653.567 1056.04 651.031 1062.8 637.537 1069.75C613.89 1081.92 589.226 1091.4 562.184 1098.66C550.064 1101.3 539.282 1103.47 527.676 1105.55C518.725 1106.72 510.598 1107.99 501.645 1109.14C498.046 1109.14 495.271 1109.26 491.583 1109.15C479.907 1109.08 469.146 1109.23 457.597 1109.26C454.686 1109.15 452.563 1109.18 449.836 1108.7C440.351 1107.03 431.471 1105.87 422.337 1104.53C422.083 1104.35 421.481 1104.51 421.081 1104.13C419.963 1103.68 419.245 1103.62 417.744 1103.32C407.475 1101.16 397.988 1099.24 388.501 1097.31C376.986 1093.22 365.471 1089.12 352.54 1084.87C345.157 1082.05 339.189 1079.38 333.221 1076.71C329.439 1074.73 325.666 1072.74 321.873 1070.78C311.37 1065.37 306.103 1054.88 314.603 1042.05C315.821 1040.79 316.741 1040.23 318.798 1039.23C327.196 1035.08 333.501 1039.24 340.544 1041.76C345.437 1044.12 349.854 1045.95 354.778 1048.25C366.354 1052.69 377.424 1056.65 389.189 1060.94C398.456 1063.34 407.028 1065.41 416.091 1067.92C417.847 1068.51 419.111 1068.67 420.881 1069C421.742 1069.15 422.097 1069.12 423.15 1069.42C429.391 1070.73 434.934 1071.71 441.251 1072.93C446.227 1073.58 450.43 1074 455.41 1074.68C458.914 1074.91 461.641 1074.89 465.286 1075.05C474.937 1075.16 483.67 1075.08 493.21 1075.14C498.187 1074.83 502.357 1074.37 507.411 1073.87C514.993 1072.77 521.691 1071.71 529.188 1070.76C544.335 1067.14 559.048 1064.44 572.942 1059.46C593.086 1052.23 612.637 1043.35 633.16 1035.3C638.469 1037.47 643.058 1039.51 647.647 1041.55Z" fill="#23A9A7"/>
<path d="M928.906 645.057C915.017 648.306 909.654 645.665 904.073 633.196C897.035 617.471 890.557 601.465 879.348 586.434C871.502 571 873.515 564.296 887.204 556.526C887.735 556.225 888.091 555.616 888.528 555.15C890.008 555.241 891.487 555.332 894.156 555.889C899.676 560.68 904.484 564.634 908.212 569.428C912.575 575.036 915.997 581.376 920.001 588.088C922.823 593.599 925.471 598.421 928.118 603.242C930.171 608.736 932.224 614.229 934.607 620.391C937.512 629.923 938.35 638.38 928.906 645.057Z" fill="#22AAA7"/>
<path d="M370.511 919.266C378.763 922.992 387.006 926.74 395.272 930.436C398.522 931.889 401.825 933.227 405.789 934.82C407.212 935.74 407.948 936.457 409.449 938.098C415.099 948.385 413.557 956.747 405.553 964.39C399.311 966.774 393.871 966.201 388.432 964.264C382.501 962.151 376.545 960.111 370.6 958.039C356.979 950.618 343.359 943.196 329.071 935.655C327.605 935.331 326.806 935.127 325.374 934.951C323.538 933.515 322.563 931.752 321.097 930.633C309.363 921.674 297.535 912.837 285.122 903.757C283.456 902.344 282.403 901.137 280.434 899.148C277.14 896.119 274.808 893.823 272.379 891.635C264.276 884.337 261.025 875.817 265.584 865.269C270.43 862.46 274.794 858.436 281.785 858.975C287.354 862.224 292.172 865.632 297.67 869.161C302.458 873.196 306.564 877.11 311.582 881.682C313.15 882.612 313.805 882.885 314.811 883.722C322.214 889.391 329.267 894.496 336.321 899.602C337.396 900.605 338.471 901.607 340.586 903.171C351.254 908.909 360.883 914.087 370.511 919.266Z" fill="#22AAA7"/>
</svg>
